<?xml version="1.0" encoding="UTF-8"?>
<svg id="_Слой_2" data-name="Слой 2" xmlns="http://www.w3.org/2000/svg" viewBox="0 0 40 39.95">
  <defs>
    <style>
      .cls-1 {
        fill: #4d7cff;
      }
    </style>
  </defs>
  <g id="_Слой_1-2" data-name="Слой 1">
    <path class="cls-1" d="m26.23,38.04c-2.54.06-4.93-.43-6.77-1.26-.47-.21-.71-.73-.56-1.22l.53-1.75c.18-.58.82-.88,1.37-.63,1.48.7,3.51,1.29,5.46,1.25,3.55-.08,5.17-1.89,5.12-4.11-.05-2.33-1.47-3.57-5.1-4.82-4.86-1.61-7.19-4.22-7.26-7.44-.1-4.32,3.32-7.95,9.08-8.08,2.27-.05,4.33.45,5.82,1.11.47.21.7.74.54,1.23l-.52,1.62c-.18.57-.81.86-1.35.61-1.12-.5-2.68-.96-4.53-.92-2.88.06-4.45,1.76-4.41,3.76.05,2.22,1.68,3.18,5.2,4.43,4.69,1.67,7.13,3.95,7.22,7.94.02.9-.1,1.74-.34,2.53,2.66-3.4,4.26-7.66,4.26-12.31C40,8.95,31.05,0,20,0S0,8.95,0,20c0,6.6,3.21,12.45,8.14,16.09v-6.8c0-.31-.25-.56-.56-.56h-1.71c-.31,0-.56-.25-.56-.56v-3.07c0-.31.25-.56.56-.56h1.71c.31,0,.56-.25.56-.56v-1.25c0-4.67,2.11-6.83,6.69-6.83.7,0,1.8.11,2.53.24.26.05.45.28.45.55v2.75c0,.32-.26.57-.58.56-.28,0-.63-.01-1.01-.01-2.25,0-3.12.85-3.12,3.07v.92c0,.31.25.56.56.56h3.25c.35,0,.61.32.55.66l-.56,3.07c-.05.27-.28.46-.55.46h-2.68c-.31,0-.56.25-.56.56v8.35c0,.29-.22.54-.51.56-.27.02-.53.03-.8.03,1.08.48,2.2.88,3.36,1.17,0,0,3.52.8,7.25.44,2.5-.3,4.86-1.07,6.99-2.21-.97.23-2.03.37-3.19.39Zm-7.92-25.85c.08-1.56.05-3.71-.1-5.34-.02-.2.1-.39.29-.46l1.27-.5c.3-.12.63.11.62.43-.07,2.07-.36,4.51-.68,5.81-.04.14-.14.26-.28.31l-.5.19c-.31.12-.64-.11-.62-.45Z"/>
  </g>
</svg>